<?xml version="1.0" encoding="utf-8"?>
<!-- Generator: Adobe Illustrator 19.0.0, SVG Export Plug-In . SVG Version: 6.00 Build 0)  -->
<svg version="1.1" id="Layer_1" xmlns="http://www.w3.org/2000/svg" xmlns:xlink="http://www.w3.org/1999/xlink" x="0px" y="0px"
	 viewBox="0 0 80 57" style="enable-background:new 0 0 80 57;" xml:space="preserve">
<style type="text/css">
	.st0{fill-rule:evenodd;clip-rule:evenodd;fill:#173042;}
	.st1{fill-rule:evenodd;clip-rule:evenodd;fill:none;stroke:#FFFFFF;stroke-miterlimit:10;}
	.st2{fill:#FFFFFF;}
	.st3{font-family:'Roboto-Bold';}
	.st4{font-size:11px;}
	.st5{letter-spacing:3;}
</style>
<g id="XMLID_234_">
	<path id="XMLID_259_" class="st0" d="M0.5,41.5h79v15h-79V41.5z"/>
	<path id="XMLID_257_" class="st0" d="M46.5,32.5h11v3h-11V32.5z"/>
	<path id="XMLID_255_" class="st0" d="M36.5,37.5v-1h5v1H36.5z"/>
	<path id="XMLID_253_" class="st0" d="M28.5,37.5v-1h5v1H28.5z"/>
	<path id="XMLID_251_" class="st0" d="M20.5,37.5v-1h5v1H20.5z"/>
	<path id="XMLID_249_" class="st0" d="M36.5,34.5v-1h5v1H36.5z"/>
	<path id="XMLID_247_" class="st0" d="M28.5,34.5v-1h5v1H28.5z"/>
	<path id="XMLID_245_" class="st0" d="M20.5,34.5v-1h5v1H20.5z"/>
	<path id="XMLID_243_" class="st0" d="M36.5,31.5v-1h5v1H36.5z"/>
	<path id="XMLID_241_" class="st0" d="M28.5,31.5v-1h5v1H28.5z"/>
	<path id="XMLID_239_" class="st0" d="M20.5,31.5v-1h5v1H20.5z"/>
	<path id="XMLID_237_" class="st0" d="M20.5,7.5h38c1.7,0,3,1.3,3,3v12c0,1.7-1.3,3-3,3h-38c-1.7,0-3-1.3-3-3v-12
		C17.5,8.8,18.8,7.5,20.5,7.5z"/>
	<path id="XMLID_235_" class="st0" d="M9.5,0.5h60v42h-60V0.5z"/>
</g>
<g id="XMLID_180_">
	<path id="XMLID_205_" class="st1" d="M0.5,41.5h79v15h-79V41.5z"/>
	<path id="XMLID_203_" class="st1" d="M46.5,32.5h11v3h-11V32.5z"/>
	<path id="XMLID_201_" class="st1" d="M36.5,37.5v-1h5v1H36.5z"/>
	<path id="XMLID_199_" class="st1" d="M28.5,37.5v-1h5v1H28.5z"/>
	<path id="XMLID_197_" class="st1" d="M20.5,37.5v-1h5v1H20.5z"/>
	<path id="XMLID_195_" class="st1" d="M36.5,34.5v-1h5v1H36.5z"/>
	<path id="XMLID_193_" class="st1" d="M28.5,34.5v-1h5v1H28.5z"/>
	<path id="XMLID_191_" class="st1" d="M20.5,34.5v-1h5v1H20.5z"/>
	<path id="XMLID_189_" class="st1" d="M36.5,31.5v-1h5v1H36.5z"/>
	<path id="XMLID_187_" class="st1" d="M28.5,31.5v-1h5v1H28.5z"/>
	<path id="XMLID_185_" class="st1" d="M20.5,31.5v-1h5v1H20.5z"/>
	<path id="XMLID_183_" class="st1" d="M20.5,7.5h38c1.7,0,3,1.3,3,3v12c0,1.7-1.3,3-3,3h-38c-1.7,0-3-1.3-3-3v-12
		C17.5,8.8,18.8,7.5,20.5,7.5z"/>
	<path id="XMLID_181_" class="st1" d="M9.5,0.5h60v42h-60V0.5z"/>
</g>
<text id="XMLID_179_" transform="matrix(1 0 0 1 24.3389 53.2503)" class="st2 st3 st4 st5">atm</text>
</svg>
