<?xml version="1.0" encoding="utf-8"?>
<!-- Generator: Adobe Illustrator 19.0.0, SVG Export Plug-In . SVG Version: 6.00 Build 0)  -->
<svg version="1.1" id="Layer_1" xmlns="http://www.w3.org/2000/svg" xmlns:xlink="http://www.w3.org/1999/xlink" x="0px" y="0px"
	 viewBox="0 0 44.3 52.3" style="enable-background:new 0 0 44.3 52.3;" xml:space="preserve">
<style type="text/css">
	.st0{fill:#173042;}
	.st1{fill:none;stroke:#173042;stroke-miterlimit:10;}
</style>
<g id="XMLID_90_">
	<path id="XMLID_88_" class="st0" d="M21.5,18.9l-3.4,27.5h-6.9c0,0-2.8-0.2-2.8,3s2.9,2.9,2.9,2.9h22.5c0,0,2.6,0.2,2.6-2.6
		s-3-3-3-3h-7.2L22.9,19L21.5,18.9z"/>
	<circle id="XMLID_89_" class="st0" cx="22.1" cy="14.8" r="4.3"/>
	<path id="XMLID_111_" class="st1" d="M38.6,28.8c3.2-3.8,5.2-8.7,5.2-14c0-5.5-2.1-10.5-5.5-14.3"/>
	<path id="XMLID_106_" class="st1" d="M34.6,4.1c2.5,2.9,4,6.6,4,10.7c0,3.9-1.4,7.5-3.7,10.4"/>
	<path id="XMLID_114_" class="st1" d="M6,0.3C2.6,4.2,0.5,9.2,0.5,14.8c0,5.4,2,10.3,5.3,14.1"/>
	<path id="XMLID_113_" class="st1" d="M9.4,25.2c-2.3-2.8-3.8-6.5-3.8-10.5c0-4.1,1.5-7.9,4-10.8"/>
	<path id="XMLID_105_" class="st1" d="M34.9,25.1c2.3-2.8,3.7-6.4,3.7-10.4c0-4.1-1.5-7.8-4-10.7"/>
	<path id="XMLID_102_" class="st1" d="M31.6,7.1c1.7,2.1,2.7,4.8,2.7,7.7c0,2.8-0.9,5.3-2.5,7.3"/>
	<path id="XMLID_112_" class="st1" d="M9.7,4c-2.5,2.9-4,6.6-4,10.8c0,4,1.4,7.6,3.8,10.5"/>
	<path id="XMLID_110_" class="st1" d="M12.5,22.2c-1.6-2.1-2.5-4.6-2.5-7.4c0-2.9,1-5.7,2.8-7.8"/>
	<path id="XMLID_100_" class="st1" d="M31.9,22.1c1.5-2,2.5-4.6,2.5-7.3c0-2.9-1-5.6-2.7-7.7"/>
	<path id="XMLID_99_" class="st1" d="M12.7,7c-1.7,2.1-2.8,4.8-2.8,7.8c0,2.8,1,5.4,2.5,7.4"/>
	<path id="XMLID_98_" class="st0" d="M20.2,14.5"/>
	<path id="XMLID_107_" class="st1" d="M38.3,0.4"/>
	<path id="XMLID_92_" class="st1" d="M9.7,4"/>
	<path id="XMLID_91_" class="st1" d="M6,0.3"/>
	<path id="XMLID_108_" class="st1" d="M38.3,0.4"/>
	<path id="XMLID_103_" class="st1" d="M34.6,4.1"/>
	<path id="XMLID_101_" class="st1" d="M12.7,7"/>
	<path id="XMLID_97_" class="st1" d="M9.7,4"/>
	<path id="XMLID_96_" class="st1" d="M34.6,4.1"/>
	<path id="XMLID_95_" class="st1" d="M31.6,7.1"/>
</g>
</svg>
