<?xml version="1.0" encoding="utf-8"?>
<!-- Generator: Adobe Illustrator 19.0.0, SVG Export Plug-In . SVG Version: 6.00 Build 0)  -->
<svg version="1.1" id="Layer_1" xmlns="http://www.w3.org/2000/svg" xmlns:xlink="http://www.w3.org/1999/xlink" x="0px" y="0px"
	 viewBox="0 0 70.9 42" style="enable-background:new 0 0 70.9 42;" xml:space="preserve">
<style type="text/css">
	.st0{fill:#173042;}
</style>
<g id="XMLID_210_">
	<path id="XMLID_207_" class="st0" d="M69.5,10.2l-7-6.3c-0.3-0.3-0.2-0.7,0.1-0.9L65,1.6c0.2-0.1,0.3-0.2,0.3-0.4l0.1-0.6
		c0-0.3-0.2-0.6-0.5-0.6l-0.8,0c-0.1,0-0.2,0-0.3,0.1L60,2.4c-0.1,0.1-0.2,0.1-0.3,0.1l-4.7,0c-0.1,0-0.2,0-0.3-0.1L52,1
		c-0.1-0.1-0.2-0.1-0.4-0.1L51.2,1c-0.3,0-0.5,0.3-0.5,0.5l0,0.4c0,0.1,0.1,0.3,0.2,0.4l1.6,1.5c0.1,0.1,0.2,0.3,0.2,0.5l-0.1,0.3
		c-0.1,0.2-0.3,0.4-0.5,0.4L29.3,7.2c0,0,0,0-0.1,0L5.3,6.6c-0.1,0-0.1,0-0.2,0L2.8,7.5c-0.1,0-0.2,0.1-0.2,0.1L0.8,9.5
		C0.8,9.6,0.7,9.7,0.7,9.8l-0.9,4.7c0,0,0,0.1,0,0.1l-0.2,3.5c0,0,0,0,0,0.1L-1,21.4c0,0,0,0.1,0,0.1l0.2,3.2l0.4,0.1
		c0.2,0,0.3,0,0.5-0.1L0.7,24c0.1-0.1,0.1-0.2,0.2-0.3l0.7-2.8c0-0.1,0-0.1,0-0.2L1,16.5l0.2,0l1.5,6.4c0,0.1,0,0.1,0,0.2l-1,5.5
		c0,0,0,0.1,0,0.1L2.6,40l0.1,1c0,0.2,0.1,0.3,0.2,0.4l0.6,0.4C3.5,41.9,3.7,42,3.8,42l3.8,0c0,0,0.1,0,0.1,0l0.5-0.1
		c0.4-0.1,0.5-0.5,0.3-0.8l-3-4.3c-0.1-0.1-0.1-0.3-0.1-0.5L7,30.4C7.1,30.2,7.3,30,7.5,30l0.1,0c0.2,0,0.4,0.1,0.5,0.4l3.1,8.2
		c0,0,0,0.1,0.1,0.1l1.6,2.1c0,0.1,0.1,0.1,0.2,0.2l0.6,0.3c0.1,0,0.2,0.1,0.3,0.1l4.1,0c0.2,0,0.3-0.1,0.4-0.2l0.4-0.4l-3.7-2
		c-0.1-0.1-0.2-0.2-0.3-0.3l-2.5-6.6c-0.1-0.2,0-0.3,0-0.5l0.4-0.6c0.1-0.2,0.3-0.3,0.5-0.3l0.9,0.1c0.2,0,0.4,0.1,0.5,0.3l0.4,0.9
		c0.2,0.4,0.7,0.4,0.9,0.1l0.4-0.6c0.2-0.3,0.7-0.3,0.9,0l0.4,0.6c0.2,0.3,0.7,0.3,0.9-0.1l0.7-1.2c0-0.1,0.1-0.2,0.2-0.2l3.1-2.1
		c0.1-0.1,0.2-0.1,0.3-0.1l11.6-1c0.2,0,0.3,0,0.4,0.2l1.7,1.8c0.1,0.1,0.1,0.2,0.1,0.3l1.7,10.2c0,0.1,0,0.1,0.1,0.2l0.7,1.1
		c0.1,0.2,0.3,0.3,0.5,0.3l3.5,0c0.2,0,0.3-0.1,0.4-0.2l0.3-0.4l-2.4-2.9c-0.1-0.1-0.1-0.2-0.1-0.3L41.2,33c0-0.4,0.4-0.7,0.8-0.5
		l0.3,0.1c0.1,0.1,0.2,0.2,0.3,0.3l1.3,3.6l1.7,4.8c0,0.1,0.1,0.2,0.2,0.3l0.5,0.3c0.1,0.1,0.2,0.1,0.3,0.1l3.1,0
		c0.2,0,0.4-0.1,0.5-0.3l0,0c0.1-0.2,0-0.5-0.2-0.6l-0.7-0.5c-0.1,0-0.1-0.1-0.1-0.1L46,34.7c-0.1-0.1-0.1-0.2-0.1-0.3l0.7-5.7
		c0-0.2,0.1-0.3,0.2-0.4l3.5-2.3c0.1,0,0.1-0.1,0.2-0.2l5.5-8.8c0.1-0.1,0.2-0.2,0.3-0.2l6.2-2.5c0,0,0.1,0,0.2,0l5.7-0.6
		c0.1,0,0.2-0.1,0.3-0.1l0.3-0.3c0.1-0.1,0.1-0.1,0.1-0.2l0.7-1.7c0.1-0.1,0.1-0.3,0-0.4l-0.3-0.5C69.6,10.3,69.5,10.3,69.5,10.2z"
		/>
</g>
</svg>
