<?xml version="1.0" encoding="utf-8"?>
<!-- Generator: Adobe Illustrator 19.0.0, SVG Export Plug-In . SVG Version: 6.00 Build 0)  -->
<svg version="1.1" id="Layer_1" xmlns="http://www.w3.org/2000/svg" xmlns:xlink="http://www.w3.org/1999/xlink" x="0px" y="0px"
	 viewBox="0 0 42 55" style="enable-background:new 0 0 42 55;" xml:space="preserve">
<style type="text/css">
	.st0{fill-rule:evenodd;clip-rule:evenodd;fill:#173042;}
</style>
<g id="XMLID_126_">
	<path id="XMLID_151_" class="st0" d="M15,36h8l4-3"/>
	<path id="XMLID_149_" class="st0" d="M21,29c3.9,0,7,3.1,7,7c0,3.9-3.1,7-7,7c-3.9,0-7-3.1-7-7C14,32.1,17.1,29,21,29z"/>
	<path id="XMLID_147_" class="st0" d="M21,25c6.1,0,11,4.9,11,11c0,6.1-4.9,11-11,11c-6.1,0-11-4.9-11-11C10,29.9,14.9,25,21,25z"/>
	<path id="XMLID_145_" class="st0" d="M3,8V7h21v1H3z"/>
	<path id="XMLID_143_" class="st0" d="M3,13h11v4H3V13z"/>
	<path id="XMLID_141_" class="st0" d="M37,16v-1h2v1H37z"/>
	<path id="XMLID_139_" class="st0" d="M33,16v-1h2v1H33z"/>
	<path id="XMLID_137_" class="st0" d="M29,16v-1h2v1H29z"/>
	<path id="XMLID_135_" class="st0" d="M0,20v-1h42v1H0z"/>
	<path id="XMLID_133_" class="st0" d="M29,0h9v11h-9V0z"/>
	<path id="XMLID_131_" class="st0" d="M5,1h17v4H5V1z"/>
	<path id="XMLID_129_" class="st0" d="M2,4h23v7H2V4z"/>
	<path id="XMLID_127_" class="st0" d="M0,10h42v45H0V10z"/>
</g>
</svg>
