<?xml version="1.0" encoding="utf-8"?>
<!-- Generator: Adobe Illustrator 19.0.0, SVG Export Plug-In . SVG Version: 6.00 Build 0)  -->
<svg version="1.1" id="Layer_1" xmlns="http://www.w3.org/2000/svg" xmlns:xlink="http://www.w3.org/1999/xlink" x="0px" y="0px"
	 viewBox="0 0 107.5 64.8" style="enable-background:new 0 0 107.5 64.8;" xml:space="preserve">
<style type="text/css">
	.st0{fill-rule:evenodd;clip-rule:evenodd;fill:#173042;}
	.st1{fill:#173042;}
	.st2{fill:#FFFFFF;}
	.st3{fill-rule:evenodd;clip-rule:evenodd;fill:#FFFFFF;}
</style>
<g id="XMLID_115_">
	<path id="XMLID_3_" class="st0" d="M57.5,55.3h50v9h-50V55.3z"/>
	<path id="XMLID_81_" class="st1" d="M58.2,14.8h-19v-7h-11v5h-11v-12l-17,0v64h16.2h2.7h7.6h2.7H38h2.7h17.5L58.2,14.8"/>
	<g id="XMLID_51_">
		<path id="XMLID_37_" class="st2" d="M58.7,14.2H39.5V7.1H27.3v5.1h-9.1V0L0,0v64.8h16.4h2.7h7.7h2.7h8.7h2.7h17.8L58.7,14.2
			 M28.3,8.1h10.1v9.1H28.3V8.1z M28.3,26.3h10.1v32.4H28.3V26.3z M28.3,25.3v-3h10.1v3H28.3z M28.3,21.3v-3h10.1v3H28.3z
			 M17.2,58.7H1V8.1h16.2V58.7z M17.2,1v6.1H1V1H17.2z M1,63.8v-4h16.2v4H1z M27.3,63.8h-9.1V13.2h9.1V63.8z M28.3,63.8v-4h10.1v4
			H28.3z M57.7,63.8H39.5V15.2h18.2V63.8z"/>
		<path id="XMLID_35_" class="st2" d="M44.5,20.2h8.1l0.2,1l-8.3,0V20.2z"/>
		<path id="XMLID_33_" class="st2" d="M44.5,24.3h8.1v1h-8.1V24.3z"/>
		<path id="XMLID_31_" class="st2" d="M44.5,29.4h8.1v1h-8.1V29.4z"/>
		<path id="XMLID_29_" class="st2" d="M44.5,56.7h8.1v1h-8.1V56.7z"/>
		<path id="XMLID_27_" class="st2" d="M22.3,39.5l1,0l0,5h-1V39.5z"/>
		<path id="XMLID_25_" class="st2" d="M22.3,46.6l1,0v10.2l-1,0V46.6z"/>
		<path id="XMLID_23_" class="st2" d="M22.3,25.3h1v12.1h-1V25.3z"/>
		<path id="XMLID_21_" class="st2" d="M22.3,18.2h1v4h-1V18.2z"/>
		<path id="XMLID_18_" class="st3" d="M99.5,54.7h1v9.1h-1V54.7z"/>
		<path id="XMLID_16_" class="st3" d="M101.5,54.7h1v9.1h-1V54.7z"/>
		<path id="XMLID_14_" class="st3" d="M68.1,54.7h1v9.1h-1V54.7z"/>
		<path id="XMLID_2_" class="st3" d="M66.1,54.7h1v9.1h-1V54.7z"/>
	</g>
</g>
</svg>
