<?xml version="1.0" encoding="utf-8"?>
<!-- Generator: Adobe Illustrator 19.0.0, SVG Export Plug-In . SVG Version: 6.00 Build 0)  -->
<svg version="1.1" id="Layer_1" xmlns="http://www.w3.org/2000/svg" xmlns:xlink="http://www.w3.org/1999/xlink" x="0px" y="0px"
	 viewBox="0 0 66 64.2" style="enable-background:new 0 0 66 64.2;" xml:space="preserve">
<style type="text/css">
	.st0{fill-rule:evenodd;clip-rule:evenodd;fill:#173042;}
	.st1{fill-rule:evenodd;clip-rule:evenodd;fill:none;stroke:#FFFFFF;stroke-miterlimit:10;}
</style>
<g id="XMLID_93_">
	<g id="XMLID_20_">
		<path id="XMLID_67_" class="st0" d="M45.5,40.5c2.8,0,5,2.2,5,5c0,2.8-2.2,5-5,5c-2.8,0-5-2.2-5-5C40.5,42.7,42.7,40.5,45.5,40.5z
			"/>
		<path id="XMLID_65_" class="st0" d="M19.5,40.5c2.8,0,5,2.2,5,5c0,2.8-2.2,5-5,5c-2.8,0-5-2.2-5-5C14.5,42.7,16.7,40.5,19.5,40.5z
			"/>
		<path id="XMLID_63_" class="st0" d="M42.5,54.5h7c0,0-0.1,1.9,0,6c0.1,4.1-7,4.4-7,0C42.5,56.1,42.5,54.5,42.5,54.5z"/>
		<path id="XMLID_61_" class="st0" d="M13.5,54.5h7c0,0-0.1,1.9,0,6c0.1,4.1-7,4.4-7,0C13.5,56.1,13.5,54.5,13.5,54.5z"/>
		<path id="XMLID_59_" class="st0" d="M0.5,19.5h4v10h-4V19.5z"/>
		<path id="XMLID_57_" class="st0" d="M61.5,19.5h4v10h-4V19.5z"/>
		<path id="XMLID_55_" class="st0" d="M7.5,0.5h50v55h-50V0.5z"/>
		<path id="XMLID_53_" class="st0" d="M24.5,5.5h16v4h-16V5.5z"/>
		<path id="XMLID_49_" class="st0" d="M12.5,14.5h40v21h-40V14.5z"/>
	</g>
	<g id="XMLID_5_">
		<path id="XMLID_86_" class="st1" d="M45.5,40.5c2.8,0,5,2.2,5,5c0,2.8-2.2,5-5,5c-2.8,0-5-2.2-5-5C40.5,42.7,42.7,40.5,45.5,40.5z
			"/>
		<path id="XMLID_84_" class="st1" d="M19.5,40.5c2.8,0,5,2.2,5,5c0,2.8-2.2,5-5,5c-2.8,0-5-2.2-5-5C14.5,42.7,16.7,40.5,19.5,40.5z
			"/>
		<path id="XMLID_82_" class="st1" d="M42.5,54.5h7c0,0-0.1,1.9,0,6c0.1,4.1-7,4.4-7,0C42.5,56.1,42.5,54.5,42.5,54.5z"/>
		<path id="XMLID_79_" class="st1" d="M13.5,54.5h7c0,0-0.1,1.9,0,6c0.1,4.1-7,4.4-7,0C13.5,56.1,13.5,54.5,13.5,54.5z"/>
		<path id="XMLID_77_" class="st1" d="M0.5,19.5h4v10h-4V19.5z"/>
		<path id="XMLID_75_" class="st1" d="M61.5,19.5h4v10h-4V19.5z"/>
		<path id="XMLID_73_" class="st1" d="M7.5,0.5h50v55h-50V0.5z"/>
		<path id="XMLID_71_" class="st1" d="M24.5,5.5h16v4h-16V5.5z"/>
		<path id="XMLID_69_" class="st1" d="M12.5,14.5h40v21h-40V14.5z"/>
	</g>
</g>
</svg>
